<mxfile host="Electron" agent="Mozilla/5.0 (X11; Linux x86_64) AppleWebKit/537.36 (KHTML, like Gecko) draw.io/24.7.17 Chrome/128.0.6613.36 Electron/32.0.1 Safari/537.36" version="24.7.17">
  <diagram name="Page-1" id="7fl2-ZSV6QaIEvgjWsZY">
    <mxGraphModel dx="2087" dy="1392" grid="0" gridSize="1" guides="1" tooltips="1" connect="1" arrows="1" fold="1" page="0" pageScale="1" pageWidth="1920" pageHeight="1200" math="0" shadow="0">
      <root>
        <mxCell id="0" />
        <mxCell id="1" parent="0" />
        <mxCell id="YAKH-8tsJ9ISijEvY5ng-2" value="&lt;font style=&quot;font-size: 14px;&quot;&gt;UC-01&lt;/font&gt;&lt;div style=&quot;font-size: 14px;&quot;&gt;&lt;font style=&quot;font-size: 14px;&quot;&gt;Cadastrar Usuário&lt;/font&gt;&lt;/div&gt;" style="ellipse;whiteSpace=wrap;html=1;" vertex="1" parent="1">
          <mxGeometry x="199" y="-111" width="160" height="80" as="geometry" />
        </mxCell>
        <mxCell id="YAKH-8tsJ9ISijEvY5ng-10" value="" style="group" vertex="1" connectable="0" parent="1">
          <mxGeometry x="-159" y="-4" width="30" height="660" as="geometry" />
        </mxCell>
        <mxCell id="YAKH-8tsJ9ISijEvY5ng-8" style="edgeStyle=none;curved=0;rounded=1;orthogonalLoop=1;jettySize=auto;html=1;fontSize=12;startSize=8;endSize=8;dashed=1;endArrow=none;endFill=0;" edge="1" parent="YAKH-8tsJ9ISijEvY5ng-10" source="YAKH-8tsJ9ISijEvY5ng-6">
          <mxGeometry relative="1" as="geometry">
            <mxPoint x="15" y="659.9999999999999" as="targetPoint" />
            <mxPoint x="15" y="112.31766612641815" as="sourcePoint" />
          </mxGeometry>
        </mxCell>
        <mxCell id="YAKH-8tsJ9ISijEvY5ng-3" value="Usuário&lt;br&gt;(Admin ou Master)" style="shape=umlActor;verticalLabelPosition=bottom;verticalAlign=top;html=1;outlineConnect=0;" vertex="1" parent="YAKH-8tsJ9ISijEvY5ng-10">
          <mxGeometry width="30" height="64.18152350081037" as="geometry" />
        </mxCell>
        <mxCell id="YAKH-8tsJ9ISijEvY5ng-9" value="" style="edgeStyle=none;curved=0;rounded=1;orthogonalLoop=1;jettySize=auto;html=1;fontSize=12;startSize=8;endSize=8;dashed=1;endArrow=none;endFill=0;" edge="1" parent="YAKH-8tsJ9ISijEvY5ng-10" target="YAKH-8tsJ9ISijEvY5ng-6">
          <mxGeometry relative="1" as="geometry">
            <mxPoint x="15" y="659.9999999999999" as="targetPoint" />
            <mxPoint x="15" y="112.31766612641815" as="sourcePoint" />
          </mxGeometry>
        </mxCell>
        <mxCell id="YAKH-8tsJ9ISijEvY5ng-6" value="" style="html=1;points=[];perimeter=orthogonalPerimeter;rounded=0;shadow=0;comic=0;labelBackgroundColor=none;strokeWidth=1;fontFamily=Verdana;fontSize=12;align=center;" vertex="1" parent="YAKH-8tsJ9ISijEvY5ng-10">
          <mxGeometry x="10" y="152.00288492706645" width="10" height="282.3987034035656" as="geometry" />
        </mxCell>
        <mxCell id="YAKH-8tsJ9ISijEvY5ng-13" value="" style="group" vertex="1" connectable="0" parent="1">
          <mxGeometry x="-9" y="23" width="752" height="794" as="geometry" />
        </mxCell>
        <mxCell id="YAKH-8tsJ9ISijEvY5ng-11" value=":SistemaControle" style="shape=umlLifeline;perimeter=lifelinePerimeter;whiteSpace=wrap;html=1;container=0;collapsible=0;recursiveResize=0;outlineConnect=0;rounded=1;shadow=0;comic=0;labelBackgroundColor=none;strokeWidth=1;fontFamily=Helvetica;fontSize=14;align=center;" vertex="1" parent="YAKH-8tsJ9ISijEvY5ng-13">
          <mxGeometry width="190" height="635" as="geometry" />
        </mxCell>
        <mxCell id="YAKH-8tsJ9ISijEvY5ng-12" value="" style="html=1;points=[];perimeter=orthogonalPerimeter;rounded=0;shadow=0;comic=0;labelBackgroundColor=none;strokeWidth=1;fontFamily=Verdana;fontSize=12;align=center;container=0;" vertex="1" parent="YAKH-8tsJ9ISijEvY5ng-13">
          <mxGeometry x="90" y="129" width="10" height="266" as="geometry" />
        </mxCell>
        <mxCell id="YAKH-8tsJ9ISijEvY5ng-28" value="" style="html=1;points=[];perimeter=orthogonalPerimeter;rounded=0;shadow=0;comic=0;labelBackgroundColor=none;strokeWidth=1;fontFamily=Verdana;fontSize=12;align=center;container=0;" vertex="1" parent="YAKH-8tsJ9ISijEvY5ng-13">
          <mxGeometry x="96" y="216" width="10" height="86" as="geometry" />
        </mxCell>
        <mxCell id="YAKH-8tsJ9ISijEvY5ng-29" value="" style="endArrow=classic;html=1;rounded=1;strokeColor=default;align=center;verticalAlign=middle;fontFamily=Helvetica;fontSize=12;fontColor=default;labelBackgroundColor=default;edgeStyle=none;startSize=8;endSize=8;curved=0;exitX=1.011;exitY=0.11;exitDx=0;exitDy=0;exitPerimeter=0;" edge="1" parent="YAKH-8tsJ9ISijEvY5ng-13" source="YAKH-8tsJ9ISijEvY5ng-28">
          <mxGeometry width="50" height="50" relative="1" as="geometry">
            <mxPoint x="109" y="222" as="sourcePoint" />
            <mxPoint x="106" y="250" as="targetPoint" />
            <Array as="points">
              <mxPoint x="136" y="225" />
              <mxPoint x="135" y="250" />
            </Array>
          </mxGeometry>
        </mxCell>
        <mxCell id="YAKH-8tsJ9ISijEvY5ng-30" value="tirarFoto()" style="edgeLabel;html=1;align=center;verticalAlign=middle;resizable=0;points=[];fontSize=12;fontFamily=Helvetica;fontColor=default;labelBackgroundColor=default;" vertex="1" connectable="0" parent="YAKH-8tsJ9ISijEvY5ng-29">
          <mxGeometry x="-0.0296" relative="1" as="geometry">
            <mxPoint x="30" y="1" as="offset" />
          </mxGeometry>
        </mxCell>
        <mxCell id="YAKH-8tsJ9ISijEvY5ng-42" value="" style="endArrow=classic;html=1;rounded=1;strokeColor=default;align=center;verticalAlign=middle;fontFamily=Helvetica;fontSize=12;fontColor=default;labelBackgroundColor=default;edgeStyle=none;startSize=8;endSize=8;curved=0;" edge="1" parent="YAKH-8tsJ9ISijEvY5ng-13">
          <mxGeometry width="50" height="50" relative="1" as="geometry">
            <mxPoint x="100" y="331" as="sourcePoint" />
            <mxPoint x="314" y="331" as="targetPoint" />
          </mxGeometry>
        </mxCell>
        <mxCell id="YAKH-8tsJ9ISijEvY5ng-47" value="" style="html=1;points=[];perimeter=orthogonalPerimeter;rounded=0;shadow=0;comic=0;labelBackgroundColor=none;strokeWidth=1;fontFamily=Verdana;fontSize=12;align=center;container=0;" vertex="1" parent="YAKH-8tsJ9ISijEvY5ng-13">
          <mxGeometry x="96" y="139" width="10" height="58" as="geometry" />
        </mxCell>
        <mxCell id="YAKH-8tsJ9ISijEvY5ng-48" value="" style="endArrow=classic;html=1;rounded=1;strokeColor=default;align=center;verticalAlign=middle;fontFamily=Helvetica;fontSize=12;fontColor=default;labelBackgroundColor=default;edgeStyle=none;startSize=8;endSize=8;curved=0;exitX=1.011;exitY=0.11;exitDx=0;exitDy=0;exitPerimeter=0;" edge="1" parent="YAKH-8tsJ9ISijEvY5ng-13">
          <mxGeometry width="50" height="50" relative="1" as="geometry">
            <mxPoint x="106" y="153" as="sourcePoint" />
            <mxPoint x="106" y="178" as="targetPoint" />
            <Array as="points">
              <mxPoint x="136" y="153" />
              <mxPoint x="135" y="178" />
            </Array>
          </mxGeometry>
        </mxCell>
        <mxCell id="YAKH-8tsJ9ISijEvY5ng-49" value="iniciarLogDaOperacao()" style="edgeLabel;html=1;align=center;verticalAlign=middle;resizable=0;points=[];fontSize=12;fontFamily=Helvetica;fontColor=default;labelBackgroundColor=default;" vertex="1" connectable="0" parent="YAKH-8tsJ9ISijEvY5ng-48">
          <mxGeometry x="-0.0296" relative="1" as="geometry">
            <mxPoint x="65" y="1" as="offset" />
          </mxGeometry>
        </mxCell>
        <mxCell id="YAKH-8tsJ9ISijEvY5ng-51" value="" style="endArrow=open;html=1;rounded=1;strokeColor=default;align=center;verticalAlign=middle;fontFamily=Helvetica;fontSize=12;fontColor=default;labelBackgroundColor=default;edgeStyle=none;startSize=8;endSize=8;curved=0;dashed=1;endFill=0;" edge="1" parent="YAKH-8tsJ9ISijEvY5ng-13">
          <mxGeometry width="50" height="50" relative="1" as="geometry">
            <mxPoint x="90" y="385" as="sourcePoint" />
            <mxPoint x="-129" y="385" as="targetPoint" />
          </mxGeometry>
        </mxCell>
        <mxCell id="YAKH-8tsJ9ISijEvY5ng-52" value="verifica dados&lt;div&gt;inseridos&lt;/div&gt;" style="shape=umlFrame;whiteSpace=wrap;html=1;pointerEvents=0;fontFamily=Helvetica;fontSize=12;fontColor=default;labelBackgroundColor=default;width=94;height=35;" vertex="1" parent="YAKH-8tsJ9ISijEvY5ng-13">
          <mxGeometry x="-286" y="209" width="1038" height="288" as="geometry" />
        </mxCell>
        <mxCell id="YAKH-8tsJ9ISijEvY5ng-53" value="confirmação de cadastro" style="text;html=1;align=center;verticalAlign=middle;resizable=0;points=[];autosize=1;strokeColor=none;fillColor=none;fontSize=12;fontFamily=Helvetica;fontColor=default;labelBackgroundColor=default;" vertex="1" parent="YAKH-8tsJ9ISijEvY5ng-13">
          <mxGeometry x="-98" y="362" width="149" height="26" as="geometry" />
        </mxCell>
        <mxCell id="YAKH-8tsJ9ISijEvY5ng-54" value="" style="html=1;points=[];perimeter=orthogonalPerimeter;rounded=0;shadow=0;comic=0;labelBackgroundColor=none;strokeWidth=1;fontFamily=Verdana;fontSize=12;align=center;container=0;" vertex="1" parent="YAKH-8tsJ9ISijEvY5ng-13">
          <mxGeometry x="90" y="451" width="10" height="19" as="geometry" />
        </mxCell>
        <mxCell id="YAKH-8tsJ9ISijEvY5ng-55" value="" style="endArrow=open;html=1;rounded=1;strokeColor=default;align=center;verticalAlign=middle;fontFamily=Helvetica;fontSize=12;fontColor=default;labelBackgroundColor=default;edgeStyle=none;startSize=8;endSize=8;curved=0;dashed=1;endFill=0;entryX=1.06;entryY=0.985;entryDx=0;entryDy=0;entryPerimeter=0;" edge="1" parent="YAKH-8tsJ9ISijEvY5ng-13">
          <mxGeometry width="50" height="50" relative="1" as="geometry">
            <mxPoint x="90" y="460" as="sourcePoint" />
            <mxPoint x="-129" y="461" as="targetPoint" />
          </mxGeometry>
        </mxCell>
        <mxCell id="YAKH-8tsJ9ISijEvY5ng-57" value="mensagem de erro" style="edgeLabel;html=1;align=center;verticalAlign=middle;resizable=0;points=[];fontSize=12;fontFamily=Helvetica;fontColor=default;labelBackgroundColor=default;" vertex="1" connectable="0" parent="YAKH-8tsJ9ISijEvY5ng-55">
          <mxGeometry x="0.1367" y="-2" relative="1" as="geometry">
            <mxPoint x="6" y="-8" as="offset" />
          </mxGeometry>
        </mxCell>
        <mxCell id="YAKH-8tsJ9ISijEvY5ng-58" value="" style="endArrow=none;dashed=1;html=1;rounded=1;strokeColor=default;align=center;verticalAlign=middle;fontFamily=Helvetica;fontSize=12;fontColor=default;labelBackgroundColor=default;edgeStyle=none;startSize=8;endSize=8;curved=0;strokeWidth=2;" edge="1" parent="YAKH-8tsJ9ISijEvY5ng-13">
          <mxGeometry width="50" height="50" relative="1" as="geometry">
            <mxPoint x="-286" y="430" as="sourcePoint" />
            <mxPoint x="751" y="430" as="targetPoint" />
          </mxGeometry>
        </mxCell>
        <mxCell id="YAKH-8tsJ9ISijEvY5ng-60" value="[se dados&lt;div&gt;inválidos]&lt;/div&gt;" style="text;html=1;align=center;verticalAlign=middle;resizable=0;points=[];autosize=1;strokeColor=none;fillColor=none;fontSize=12;fontFamily=Helvetica;fontColor=default;labelBackgroundColor=default;" vertex="1" parent="YAKH-8tsJ9ISijEvY5ng-13">
          <mxGeometry x="-280.5" y="440" width="70" height="41" as="geometry" />
        </mxCell>
        <mxCell id="YAKH-8tsJ9ISijEvY5ng-62" value="" style="html=1;points=[];perimeter=orthogonalPerimeter;rounded=0;shadow=0;comic=0;labelBackgroundColor=none;strokeWidth=1;fontFamily=Verdana;fontSize=12;align=center;container=0;" vertex="1" parent="YAKH-8tsJ9ISijEvY5ng-13">
          <mxGeometry x="90" y="515" width="10" height="58" as="geometry" />
        </mxCell>
        <mxCell id="YAKH-8tsJ9ISijEvY5ng-63" value="" style="endArrow=classic;html=1;rounded=1;strokeColor=default;align=center;verticalAlign=middle;fontFamily=Helvetica;fontSize=12;fontColor=default;labelBackgroundColor=default;edgeStyle=none;startSize=8;endSize=8;curved=0;exitX=1.011;exitY=0.11;exitDx=0;exitDy=0;exitPerimeter=0;" edge="1" parent="YAKH-8tsJ9ISijEvY5ng-13">
          <mxGeometry width="50" height="50" relative="1" as="geometry">
            <mxPoint x="100" y="529" as="sourcePoint" />
            <mxPoint x="100" y="554" as="targetPoint" />
            <Array as="points">
              <mxPoint x="130" y="529" />
              <mxPoint x="129" y="554" />
            </Array>
          </mxGeometry>
        </mxCell>
        <mxCell id="YAKH-8tsJ9ISijEvY5ng-64" value="salvarLogDaOperacao()" style="edgeLabel;html=1;align=center;verticalAlign=middle;resizable=0;points=[];fontSize=12;fontFamily=Helvetica;fontColor=default;labelBackgroundColor=default;" vertex="1" connectable="0" parent="YAKH-8tsJ9ISijEvY5ng-63">
          <mxGeometry x="-0.0296" relative="1" as="geometry">
            <mxPoint x="68" y="1" as="offset" />
          </mxGeometry>
        </mxCell>
        <mxCell id="YAKH-8tsJ9ISijEvY5ng-16" value="" style="endArrow=classic;html=1;rounded=1;strokeColor=default;align=center;verticalAlign=middle;fontFamily=Helvetica;fontSize=12;fontColor=default;labelBackgroundColor=default;edgeStyle=none;startSize=8;endSize=8;curved=0;entryX=-0.14;entryY=0;entryDx=0;entryDy=0;entryPerimeter=0;" edge="1" parent="1" target="YAKH-8tsJ9ISijEvY5ng-12">
          <mxGeometry width="50" height="50" relative="1" as="geometry">
            <mxPoint x="-139" y="152" as="sourcePoint" />
            <mxPoint x="-89" y="102" as="targetPoint" />
          </mxGeometry>
        </mxCell>
        <mxCell id="YAKH-8tsJ9ISijEvY5ng-17" value="Insere dados do novo usuário&lt;div style=&quot;font-size: 11px;&quot;&gt;(email e senha)&lt;/div&gt;" style="edgeLabel;html=1;align=center;verticalAlign=middle;resizable=0;points=[];fontSize=11;fontFamily=Helvetica;fontColor=default;labelBackgroundColor=default;" vertex="1" connectable="0" parent="YAKH-8tsJ9ISijEvY5ng-16">
          <mxGeometry x="-0.1181" y="1" relative="1" as="geometry">
            <mxPoint x="9" y="-16" as="offset" />
          </mxGeometry>
        </mxCell>
        <mxCell id="YAKH-8tsJ9ISijEvY5ng-18" value="" style="group" vertex="1" connectable="0" parent="1">
          <mxGeometry x="688" y="-14" width="30" height="670" as="geometry" />
        </mxCell>
        <mxCell id="YAKH-8tsJ9ISijEvY5ng-19" style="edgeStyle=none;curved=0;rounded=1;orthogonalLoop=1;jettySize=auto;html=1;fontSize=12;startSize=8;endSize=8;dashed=1;endArrow=none;endFill=0;" edge="1" parent="YAKH-8tsJ9ISijEvY5ng-18" source="YAKH-8tsJ9ISijEvY5ng-22">
          <mxGeometry relative="1" as="geometry">
            <mxPoint x="15" y="669.9999999999999" as="targetPoint" />
            <mxPoint x="15" y="114.0194489465154" as="sourcePoint" />
          </mxGeometry>
        </mxCell>
        <mxCell id="YAKH-8tsJ9ISijEvY5ng-20" value="Usuário Comum&lt;div&gt;(Novo)&lt;/div&gt;" style="shape=umlActor;verticalLabelPosition=bottom;verticalAlign=top;html=1;outlineConnect=0;" vertex="1" parent="YAKH-8tsJ9ISijEvY5ng-18">
          <mxGeometry width="30" height="65.15397082658022" as="geometry" />
        </mxCell>
        <mxCell id="YAKH-8tsJ9ISijEvY5ng-21" value="" style="edgeStyle=none;curved=0;rounded=1;orthogonalLoop=1;jettySize=auto;html=1;fontSize=12;startSize=8;endSize=8;dashed=1;endArrow=none;endFill=0;" edge="1" parent="YAKH-8tsJ9ISijEvY5ng-18" target="YAKH-8tsJ9ISijEvY5ng-22">
          <mxGeometry relative="1" as="geometry">
            <mxPoint x="15" y="669.9999999999999" as="targetPoint" />
            <mxPoint x="15" y="114.0194489465154" as="sourcePoint" />
          </mxGeometry>
        </mxCell>
        <mxCell id="YAKH-8tsJ9ISijEvY5ng-22" value="" style="html=1;points=[];perimeter=orthogonalPerimeter;rounded=0;shadow=0;comic=0;labelBackgroundColor=none;strokeWidth=1;fontFamily=Verdana;fontSize=12;align=center;" vertex="1" parent="YAKH-8tsJ9ISijEvY5ng-18">
          <mxGeometry x="10" y="307.0012188532511" width="10" height="23.889789303079414" as="geometry" />
        </mxCell>
        <mxCell id="YAKH-8tsJ9ISijEvY5ng-24" value="" style="group" vertex="1" connectable="0" parent="1">
          <mxGeometry x="447" y="23" width="162" height="633" as="geometry" />
        </mxCell>
        <mxCell id="YAKH-8tsJ9ISijEvY5ng-25" value=":UsuarioComum" style="shape=umlLifeline;perimeter=lifelinePerimeter;whiteSpace=wrap;html=1;container=0;collapsible=0;recursiveResize=0;outlineConnect=0;rounded=1;shadow=0;comic=0;labelBackgroundColor=none;strokeWidth=1;fontFamily=Helvetica;fontSize=14;align=center;" vertex="1" parent="YAKH-8tsJ9ISijEvY5ng-24">
          <mxGeometry width="162" height="633.0000000000001" as="geometry" />
        </mxCell>
        <mxCell id="YAKH-8tsJ9ISijEvY5ng-26" value="" style="html=1;points=[];perimeter=orthogonalPerimeter;rounded=0;shadow=0;comic=0;labelBackgroundColor=none;strokeWidth=1;fontFamily=Verdana;fontSize=12;align=center;container=0;" vertex="1" parent="YAKH-8tsJ9ISijEvY5ng-24">
          <mxGeometry x="76.72999999999999" y="357.00186099799504" width="8.53" height="22.91896551724138" as="geometry" />
        </mxCell>
        <mxCell id="YAKH-8tsJ9ISijEvY5ng-34" value="" style="endArrow=open;html=1;rounded=1;strokeColor=default;align=center;verticalAlign=middle;fontFamily=Helvetica;fontSize=12;fontColor=default;labelBackgroundColor=default;edgeStyle=none;startSize=8;endSize=8;curved=0;entryX=1.032;entryY=0.876;entryDx=0;entryDy=0;entryPerimeter=0;dashed=1;endFill=0;exitX=-0.214;exitY=0.231;exitDx=0;exitDy=0;exitPerimeter=0;" edge="1" parent="1" target="YAKH-8tsJ9ISijEvY5ng-28">
          <mxGeometry width="50" height="50" relative="1" as="geometry">
            <mxPoint x="695.8600000000001" y="311.6400000000001" as="sourcePoint" />
            <mxPoint x="224" y="334" as="targetPoint" />
          </mxGeometry>
        </mxCell>
        <mxCell id="YAKH-8tsJ9ISijEvY5ng-35" value="foto" style="edgeLabel;html=1;align=center;verticalAlign=middle;resizable=0;points=[];fontSize=12;fontFamily=Helvetica;fontColor=default;labelBackgroundColor=default;" vertex="1" connectable="0" parent="1">
          <mxGeometry x="678.002765909867" y="323.0013697395188" as="geometry" />
        </mxCell>
        <mxCell id="YAKH-8tsJ9ISijEvY5ng-36" value="" style="group" vertex="1" connectable="0" parent="1">
          <mxGeometry x="229" y="23" width="162" height="636" as="geometry" />
        </mxCell>
        <mxCell id="YAKH-8tsJ9ISijEvY5ng-37" value=":BiometriaFacial" style="shape=umlLifeline;perimeter=lifelinePerimeter;whiteSpace=wrap;html=1;container=0;collapsible=0;recursiveResize=0;outlineConnect=0;rounded=1;shadow=0;comic=0;labelBackgroundColor=none;strokeWidth=1;fontFamily=Helvetica;fontSize=14;align=center;" vertex="1" parent="YAKH-8tsJ9ISijEvY5ng-36">
          <mxGeometry width="162" height="636" as="geometry" />
        </mxCell>
        <mxCell id="YAKH-8tsJ9ISijEvY5ng-38" value="" style="html=1;points=[];perimeter=orthogonalPerimeter;rounded=0;shadow=0;comic=0;labelBackgroundColor=none;strokeWidth=1;fontFamily=Verdana;fontSize=12;align=center;container=0;" vertex="1" parent="YAKH-8tsJ9ISijEvY5ng-36">
          <mxGeometry x="76.74" y="321.99618526204256" width="8.53" height="19.73793103448276" as="geometry" />
        </mxCell>
        <mxCell id="YAKH-8tsJ9ISijEvY5ng-44" value="&amp;lt;&amp;lt;create&amp;gt;&amp;gt;" style="edgeLabel;html=1;align=center;verticalAlign=middle;resizable=0;points=[];fontSize=12;fontFamily=Helvetica;fontColor=default;labelBackgroundColor=default;" vertex="1" connectable="0" parent="1">
          <mxGeometry x="192.00409016591965" y="343.99774585200555" as="geometry" />
        </mxCell>
        <mxCell id="YAKH-8tsJ9ISijEvY5ng-31" value="" style="endArrow=classic;html=1;rounded=1;strokeColor=default;align=center;verticalAlign=middle;fontFamily=Helvetica;fontSize=12;fontColor=default;labelBackgroundColor=default;edgeStyle=none;startSize=8;endSize=8;curved=0;exitX=1.114;exitY=0.728;exitDx=0;exitDy=0;exitPerimeter=0;" edge="1" parent="1" source="YAKH-8tsJ9ISijEvY5ng-28">
          <mxGeometry width="50" height="50" relative="1" as="geometry">
            <mxPoint x="295" y="224.28" as="sourcePoint" />
            <mxPoint x="697" y="299" as="targetPoint" />
          </mxGeometry>
        </mxCell>
        <mxCell id="YAKH-8tsJ9ISijEvY5ng-32" value="tira foto do novo usuário" style="edgeLabel;html=1;align=center;verticalAlign=middle;resizable=0;points=[];fontSize=12;fontFamily=Helvetica;fontColor=default;labelBackgroundColor=default;" vertex="1" connectable="0" parent="YAKH-8tsJ9ISijEvY5ng-31">
          <mxGeometry x="-0.4394" relative="1" as="geometry">
            <mxPoint x="-92" y="-9" as="offset" />
          </mxGeometry>
        </mxCell>
        <mxCell id="YAKH-8tsJ9ISijEvY5ng-45" value="" style="endArrow=classic;html=1;rounded=1;strokeColor=default;align=center;verticalAlign=middle;fontFamily=Helvetica;fontSize=12;fontColor=default;labelBackgroundColor=default;edgeStyle=none;startSize=8;endSize=8;curved=0;entryX=-0.086;entryY=0.396;entryDx=0;entryDy=0;entryPerimeter=0;" edge="1" parent="1">
          <mxGeometry width="50" height="50" relative="1" as="geometry">
            <mxPoint x="91" y="389" as="sourcePoint" />
            <mxPoint x="522.0035789473684" y="389.24" as="targetPoint" />
          </mxGeometry>
        </mxCell>
        <mxCell id="YAKH-8tsJ9ISijEvY5ng-46" value="&amp;lt;&amp;lt;create&amp;gt;&amp;gt;" style="edgeLabel;html=1;align=center;verticalAlign=middle;resizable=0;points=[];fontSize=12;fontFamily=Helvetica;fontColor=default;labelBackgroundColor=default;" vertex="1" connectable="0" parent="1">
          <mxGeometry x="192.00409016591965" y="379.99774585200555" as="geometry" />
        </mxCell>
        <mxCell id="YAKH-8tsJ9ISijEvY5ng-56" value="" style="html=1;points=[];perimeter=orthogonalPerimeter;rounded=0;shadow=0;comic=0;labelBackgroundColor=none;strokeWidth=1;fontFamily=Verdana;fontSize=12;align=center;" vertex="1" parent="1">
          <mxGeometry x="-149" y="471" width="10" height="24" as="geometry" />
        </mxCell>
        <mxCell id="YAKH-8tsJ9ISijEvY5ng-59" value="[se dados&lt;div&gt;válidos]&lt;/div&gt;" style="text;html=1;align=center;verticalAlign=middle;resizable=0;points=[];autosize=1;strokeColor=none;fillColor=none;fontSize=12;fontFamily=Helvetica;fontColor=default;labelBackgroundColor=default;" vertex="1" parent="1">
          <mxGeometry x="-290.5" y="268.5" width="70" height="41" as="geometry" />
        </mxCell>
      </root>
    </mxGraphModel>
  </diagram>
</mxfile>
